<svg xmlns="http://www.w3.org/2000/svg" viewBox="0 0 24 24">
  <path fill="#10a37f" d="M22.28 10.3a5.86 5.86 0 0 0-.51-4.85 6.13 6.13 0 0 0-6.53-2.88A6.1 6.1 0 0 0 12.5 0a6.17 6.17 0 0 0-5.14.07 6.1 6.1 0 0 0-2.8 1.4A6 6 0 0 0 3 4.1a6.1 6.1 0 0 0-2.32 1.7 6.1 6.1 0 0 0-.96 5.4 5.86 5.86 0 0 0 .51 4.85 6.13 6.13 0 0 0 6.53 2.88A6.1 6.1 0 0 0 11.5 24a6.17 6.17 0 0 0 5.14-.07 6.1 6.1 0 0 0 2.8-1.4 6 6 0 0 0 1.71-2.6 6.1 6.1 0 0 0 2.32-1.7 6.1 6.1 0 0 0 .96-5.4zM12.5 2a3.86 3.86 0 0 1 1.22.26 4.25 4.25 0 0 1 2.32 2 4.24 4.24 0 0 1-.25 4.34l-.13.2-3.89-2.25V2.1l.05-.02a3.87 3.87 0 0 1 .68-.08zM4.27 6.38a4.25 4.25 0 0 1 3.55-1.8c.42 0 .84.06 1.24.18l.23.06v4.5l-3.89 2.25-.13-.22a4.24 4.24 0 0 1-1-4.34 3.87 3.87 0 0 1 0-.63zm.25 9.4l.13-.2 3.89 2.25v4.51l-.05.02a3.87 3.87 0 0 1-1.22.26 4.25 4.25 0 0 1-2.32-2 4.24 4.24 0 0 1 .25-4.34l.32-.5zm12.03 3.14a4.25 4.25 0 0 1-3.55 1.8 4.25 4.25 0 0 1-3.75-2.11l-.23-.06v-4.5l3.89-2.25.13.22a4.24 4.24 0 0 1 1 4.34 3.87 3.87 0 0 1 0 .56zm2.83-1.66l-.13.2-3.89-2.25v-4.51l3.89-2.25.13.22a4.24 4.24 0 0 1 1 4.34l.02.04a3.87 3.87 0 0 1 .26 1.22 4.25 4.25 0 0 1-2 2.32l-.21.13zM6.97 7.01l3.89 2.25v4.5l-3.89 2.25V11.54l3.89-2.25-.02-.02-3.89-2.25V7.01zm9.86 6.04l-3.89 2.25v-4.5l3.89-2.25v4.5z"/>
</svg>
