<svg xmlns="http://www.w3.org/2000/svg" viewBox="0 0 111 30" fill="#E50914" width="120" height="32">
  <path d="M105.062 14.28L111 30c-1.75-.25-3.499-.563-5.28-.845l-3.345-8.686-3.437 7.969c-1.687-.218-3.375-.406-5.062-.53L99.125 10h5.937l-5.062 14.28L105.062 10h5.938v4.28zm-30.62 5.156l5.125 15.157c-1.687-.032-3.375-.032-5.062 0L71 20H65v15c-1.687 0-3.375.031-5.062.031V10h10.125c2.187 0 4.375 0 6.562.031v4.375c-1.5 0-3-.031-4.5-.031H65v6.031h5.125zM12 26c-1.906 0-3.812 0-5.719.031V10h5.719c2.187 0 4.375 0 6.562.031v4.375c-1.5 0-3-.031-4.5-.031h-2.062V26zm28.125 0c-1.906 0-3.812.031-5.719.031V10h10.125c2.187 0 4.375 0 6.562.031v4.375c-1.5 0-3-.031-4.5-.031h-2.062V26zM53.375 10c1.687 0 3.375 0 5.063.031v11.156c0 1.688 0 3.375.031 5.063 1.75 0 3.5 0 5.281.031v4.375c-3.469 0-6.938 0-10.406-.031V10zM17.25 10v10.125c0 1.688 0 3.375.031 5.063 1.75 0 3.5 0 5.281.031v4.375c-3.469 0-6.938 0-10.406-.031V10zM84 10h5.063v25c-1.688 0-3.375 0-5.063-.031V10z"/>
</svg>
