<svg xmlns="http://www.w3.org/2000/svg" viewBox="0 0 24 24" fill="#FF4500" width="64" height="64">
  <path d="M12 0A12 12 0 0 0 0 12a12 12 0 0 0 12 12 12 12 0 0 0 12-12A12 12 0 0 0 12 0zm5.01 4.744c.688 0 1.25.561 1.25 1.249a1.25 1.25 0 0 1-2.498.056l-2.597-.547-.8 3.747c1.824.07 3.48.632 4.674 1.488.308-.362.776-.594 1.3-.594 1.125 0 2.031.906 2.031 2.031 0 .93-.623 1.708-1.464 1.947.033.225.049.45.049.68 0 2.92-3.75 5.297-8.36 5.297-4.61 0-8.36-2.377-8.36-5.297 0-.23.016-.455.05-.68-.842-.24-1.465-1.017-1.465-1.947 0-1.125.906-2.03 2.03-2.03.526 0 .992.232 1.3.594 1.2-.856 2.855-1.417 4.683-1.489l.91-4.26a.25.25 0 0 1 .158-.184l3.125.66c.105-.333.411-.575.772-.575zm-7.653 7.844c-.75 0-1.36.609-1.36 1.359 0 .75.61 1.36 1.36 1.36.75 0 1.36-.61 1.36-1.36 0-.75-.61-1.359-1.36-1.359zm5.284 0c-.75 0-1.36.609-1.36 1.359 0 .75.61 1.36 1.36 1.36.75 0 1.36-.61 1.36-1.36 0-.75-.61-1.359-1.36-1.359zm-1.636 4.31a3.172 3.172 0 0 1-1.005.158 3.172 3.172 0 0 1-1.005-.158.25.25 0 1 0-.154.475c.34.11.7.165 1.159.165.458 0 .819-.055 1.159-.165a.25.25 0 1 0-.154-.475z"/>
</svg>
