<svg xmlns="http://www.w3.org/2000/svg" viewBox="0 0 24 24" width="64" height="64">
  <path fill="#10a37f" d="M22.2819 9.8211a5.9847 5.9847 0 0 0-.5153-4.9108 6.0462 6.0462 0 0 0-6.5098-2.9c-1.553-.4233-3.193-.4233-4.746 0a6.0462 6.0462 0 0 0-6.5098 2.9 6.0522 6.0522 0 0 0-.5153 4.9108 6.0522 6.0522 0 0 0-2.316 1.761 6.0522 6.0522 0 0 0-.9623 5.4 5.9847 5.9847 0 0 0 5.1433 3.9612 6.0462 6.0462 0 0 0 5.1433-.0752l.024-.012V24h1.034l.024-.012a6.0462 6.0462 0 0 0 5.1433.0752 5.9847 5.9847 0 0 0 5.1433-3.9612 6.0522 6.0522 0 0 0-.9623-5.4 6.0522 6.0522 0 0 0 2.316-1.761ZM12.5 1.5c1.026 0 2.02.26 2.895.753a4.2562 4.2562 0 0 1 2.122 3.676 4.2345 4.2345 0 0 1-2.122 3.676l-3.895 2.25V1.5h1ZM4.264 6.375a4.2562 4.2562 0 0 1 5.671-1.516l3.895 2.25-3.895 2.25a4.2562 4.2562 0 0 1-5.671-1.516 4.2345 4.2345 0 0 1 0-1.468ZM3.516 14.881a4.2562 4.2562 0 0 1-.753-4.414l3.895-2.25V12.743l-3.142 4.549a4.2562 4.2562 0 0 1 0-2.411ZM11.5 22.5c-1.026 0-2.02-.26-2.895-.753a4.2562 4.2562 0 0 1-2.122-3.676 4.2345 4.2345 0 0 1 2.122-3.676l3.895-2.25v10.355h-1Zm8.236-4.875a4.2562 4.2562 0 0 1-5.671 1.516l-3.895-2.25 3.895-2.25a4.2562 4.2562 0 0 1 5.671 1.516 4.2345 4.2345 0 0 1 0 1.468ZM20.484 9.119a4.2562 4.2562 0 0 1 .753 4.414l-3.895 2.25V8.514l3.142-4.549a4.2562 4.2562 0 0 1 0 5.154ZM12.5 13.5l-3.895-2.25 3.895-2.25 3.895 2.25-3.895 2.25Z"/>
</svg>
