<svg xmlns="http://www.w3.org/2000/svg" viewBox="0 0 1024 1024" fill="currentColor">
  <path d="M512 0C229.2 0 0 229.2 0 512c0 226.8 147.2 419.4 351.2 487.4 25.6 4.6 35-11.2 35-24.8 0-12.2-.4-44.4-.6-87.2-143.0 31.1-173.2-69.0-173.2-69.0-23.4-59.4-57.2-75.2-57.2-75.2-46.8-32.0 3.6-31.4 3.6-31.4 51.8 3.6 79.0 53.2 79.0 53.2 46.0 78.8 120.6 56.0 149.8 42.8 4.6-33.4 18.0-56.0 32.8-68.8-114.4-13.0-234.6-57.2-234.6-254.6 0-56.2 20.1-102.0 53.2-137.8-5.4-13.0-23.0-65.2 5.0-136.0 0 0 43.4-14.0 142.2 52.8 41.2-11.4 85.4-17.0 129.6-17.2 44.0.2 88.2 5.8 129.4 17.2 98.6-66.8 142.0-52.8 142.0-52.8 28.2 70.8 10.6 123.0 5.2 136.0 33.0 35.8 53.2 81.6 53.2 137.8 0 197.8-120.4 241.6-235.0 254.4 18.4 15.8 34.8 47.0 34.8 94.6 0 68.4-.6 123.6-.6 140.4 0 13.8 9.2 29.6 35.0 24.6C876.8 931.4 1024 738.8 1024 512 1024 229.2 794.8 0 512 0z"/>
</svg>
