
<svg xmlns="http://www.w3.org/2000/svg" viewBox="0 0 24 24" fill="currentColor">
  <path d="M12 0a4.8 4.8 0 0 1 4.157 2.4l.173.3 1.385-.8A4.8 4.8 0 1 1 22.1 9.557l-.3.173.8 1.385A4.8 4.8 0 1 1 14.443 16.1l-.173-.3-1.385.8A4.8 4.8 0 1 1 1.9 14.443l.3-.173-.8-1.385A4.8 4.8 0 1 1 9.557 1.9l.173.3 1.385-.8A4.77 4.77 0 0 1 12 0Zm0 2.4a2.4 2.4 0 0 0-2.078 1.2l-.173.3 2.251 3.9a2.4 2.4 0 0 1 0 2.4l-2.251 3.9.173.3A2.4 2.4 0 1 0 12 13.2l-.173-.3 2.251-3.9a2.4 2.4 0 0 1 0-2.4l-2.251-3.9.173-.3A2.4 2.4 0 0 0 12 2.4Z"/>
</svg>
