<svg xmlns="http://www.w3.org/2000/svg" viewBox="0 0 256 34" width="256" height="34">
  <path fill="#F80000" d="M37.314 0c-20.578 0-37.314 7.647-37.314 17.001s16.736 17.001 37.314 17.001c20.584 0 37.314-7.647 37.314-17.001s-16.73-17.001-37.314-17.001zm0 28.14c-13.824 0-25.034-4.991-25.034-11.139 0-6.142 11.21-11.133 25.034-11.133 13.83 0 25.04 4.991 25.04 11.133 0 6.148-11.21 11.139-25.04 11.139zM100.864 5.923v15.342c0 2.226-1.01 3.424-3.52 3.424h-13.124v3.132h14.288c5.093 0 7.84-2.31 7.84-6.84V5.923h-5.484zM128.525 5.923h-5.484v21.906h5.484V5.923zM169.176 5.637c-12.067 0-20.245 8.353-20.245 11.364 0 3.012 8.178 11.365 20.245 11.365 12.074 0 20.246-8.353 20.246-11.365 0-3.011-8.172-11.364-20.246-11.364zm0 18.514c-8.68 0-14.761-5.328-14.761-7.15 0-1.828 6.081-7.156 14.761-7.156 8.686 0 14.761 5.328 14.761 7.156 0 1.822-6.075 7.15-14.761 7.15zM224.234 5.923c-10.742 0-18.178 7.352-18.178 11.364 0 4.018 7.436 11.365 18.178 11.365 6.953 0 12.441-2.99 15.69-6.38l-3.364-2.503c-2.43 2.76-6.446 4.774-12.326 4.774-7.462 0-12.693-4.81-12.693-7.256 0-2.44 5.231-7.25 12.693-7.25 5.88 0 9.896 2.015 12.326 4.775l3.364-2.503c-3.249-3.39-8.737-6.386-15.69-6.386zM250.516 5.923h-5.484v21.906h18.261v-4.116h-12.777V5.923z"/>
</svg>
