<svg xmlns="http://www.w3.org/2000/svg" viewBox="0 0 77 46" width="80" height="48">
  <path fill="#232F3E" d="M14.05 31.02c-3.13 0-5.18-1.57-5.18-3.95 0-3.64 4.07-4.14 7.63-4.14v1.1c0 2.65-1.04 6.99-2.45 6.99zm6.36-11.45c-2.43 0-6.1.48-8.1 1.48l.58 2.66c1.42-.64 3.7-.93 5.08-.93 2.06 0 2.45.87 2.45 2.14v1.07c-1.12-.12-2.52-.18-3.83-.18-5.32 0-11.2 1.48-11.2 7.23 0 4.1 3.01 6.55 7.15 6.55 3.37 0 5.66-1.5 6.84-3.41l.3 2.94h4.04v-16.1c0-4.04-1.93-9.46-13.31-9.46-4.63 0-9.2 1.25-11.16 2.43l1.19 2.95c1.61-.87 5.02-1.91 8.76-1.91 6.52 0 8.21 2.84 8.21 5.9v1.14c-1.28-.52-3.86-1-7-1zm24.73 3.65l-3.32 11.1-3.33-11.1-3.56 11.1-3.15-11.1h-4.66l5.77 18.52h4.15l3.29-10.4 3.3 10.4h4.16l5.78-18.52h-4.42zm23.15-1.39c-2.3 0-4.61.52-6.1 1.24l.8 3.1c1.1-.49 2.95-1.01 4.71-1.01 2.22 0 3.32.84 3.32 2.14 0 1.22-.84 1.83-4.34 2.75-4.52 1.16-7.33 3.1-7.33 6.66 0 4.14 3.1 6.6 7.41 6.6 3.03 0 5.46-1.33 6.5-2.93l.35 2.51h4.01v-12.33c0-6.32-4.18-8.73-9.33-8.73zm1.18 13.9c0 2.64-1.68 4.2-3.95 4.2-1.88 0-3.35-.98-3.35-3.04 0-2.37 2-3.41 5-4.17l2.3-.58v3.59z"/>
  <path fill="#FF9900" d="M38.5 40.57c-11.53 0-19.42-4.23-24.62-8.58-.6-.5-.1-.95.48-.64 6.77 3.63 15.35 6.2 24.53 6.2 7.74 0 16.48-1.55 23.36-5.83.67-.42 1.15.17.61.73-5.22 5.4-13.75 8.12-24.36 8.12zm28.31-5.63c-.48-.59-.12-.83.43-.63 2.1.75 5.51 1.63 6.2 1.77.7.14.81-.35.15-.81-2.47-1.74-5.4-4.83-6.57-6.38-.47-.63-.07-1.03.62-.75 3.36 1.35 11.57 3.43 12.32 3.6.76.17.82.72.16 1.25-3.23 2.62-8.9 7.6-11.85 9.77-.66.49-1.01.12-.76-.46.54-1.25 1.1-5.18 1.3-7.36z"/>
</svg>
